<mxfile host="app.diagrams.net" agent="Mozilla/5.0 (Windows NT 10.0; Win64; x64) AppleWebKit/537.36 (KHTML, like Gecko) Chrome/131.0.0.0 Safari/537.36 Edg/131.0.0.0" version="25.0.3">
  <diagram id="C5RBs43oDa-KdzZeNtuy" name="Page-1">
    <mxGraphModel dx="1699" dy="477" grid="1" gridSize="10" guides="1" tooltips="1" connect="1" arrows="1" fold="1" page="1" pageScale="1" pageWidth="827" pageHeight="1169" math="0" shadow="0">
      <root>
        <mxCell id="WIyWlLk6GJQsqaUBKTNV-0" />
        <mxCell id="WIyWlLk6GJQsqaUBKTNV-1" parent="WIyWlLk6GJQsqaUBKTNV-0" />
        <mxCell id="mvioNwK95yMqdUQ73LqQ-36" value="" style="swimlane;fontFamily=Sarabun;fontSource=https%3A%2F%2Ffonts.googleapis.com%2Fcss%3Ffamily%3DSarabun;" parent="WIyWlLk6GJQsqaUBKTNV-1" vertex="1">
          <mxGeometry x="-740" y="60" width="640" height="1900" as="geometry" />
        </mxCell>
        <mxCell id="pXdczCPLqUhGzNIIeVMN-3" style="edgeStyle=orthogonalEdgeStyle;rounded=0;orthogonalLoop=1;jettySize=auto;html=1;" parent="mvioNwK95yMqdUQ73LqQ-36" source="mvioNwK95yMqdUQ73LqQ-35" edge="1">
          <mxGeometry relative="1" as="geometry">
            <mxPoint x="320" y="130" as="targetPoint" />
          </mxGeometry>
        </mxCell>
        <mxCell id="mvioNwK95yMqdUQ73LqQ-35" value="&lt;font data-font-src=&quot;https://fonts.googleapis.com/css?family=Sarabun&quot; face=&quot;Sarabun&quot;&gt;Start&lt;/font&gt;" style="ellipse;whiteSpace=wrap;html=1;" parent="mvioNwK95yMqdUQ73LqQ-36" vertex="1">
          <mxGeometry x="255" y="40" width="130" height="30" as="geometry" />
        </mxCell>
        <mxCell id="80OV8Sp7y3rcq8Tu3NWQ-3" style="edgeStyle=orthogonalEdgeStyle;rounded=0;orthogonalLoop=1;jettySize=auto;html=1;" parent="mvioNwK95yMqdUQ73LqQ-36" source="80OV8Sp7y3rcq8Tu3NWQ-1" edge="1">
          <mxGeometry relative="1" as="geometry">
            <mxPoint x="320" y="280" as="targetPoint" />
          </mxGeometry>
        </mxCell>
        <mxCell id="80OV8Sp7y3rcq8Tu3NWQ-1" value="Declare&lt;br&gt;FILE *file&lt;div&gt;&lt;br&gt;&lt;/div&gt;" style="rounded=0;whiteSpace=wrap;html=1;" parent="mvioNwK95yMqdUQ73LqQ-36" vertex="1">
          <mxGeometry x="260" y="130" width="120" height="60" as="geometry" />
        </mxCell>
        <mxCell id="80OV8Sp7y3rcq8Tu3NWQ-15" style="edgeStyle=orthogonalEdgeStyle;rounded=0;orthogonalLoop=1;jettySize=auto;html=1;entryX=0.5;entryY=0;entryDx=0;entryDy=0;" parent="mvioNwK95yMqdUQ73LqQ-36" source="80OV8Sp7y3rcq8Tu3NWQ-2" target="80OV8Sp7y3rcq8Tu3NWQ-13" edge="1">
          <mxGeometry relative="1" as="geometry" />
        </mxCell>
        <mxCell id="80OV8Sp7y3rcq8Tu3NWQ-2" value="Open file&amp;nbsp;a15-5.txt in read mode" style="rounded=0;whiteSpace=wrap;html=1;" parent="mvioNwK95yMqdUQ73LqQ-36" vertex="1">
          <mxGeometry x="260" y="280" width="120" height="60" as="geometry" />
        </mxCell>
        <mxCell id="EYcm057duq2a2HkxR-Ni-3" style="edgeStyle=orthogonalEdgeStyle;rounded=0;orthogonalLoop=1;jettySize=auto;html=1;entryX=0;entryY=0.5;entryDx=0;entryDy=0;" edge="1" parent="mvioNwK95yMqdUQ73LqQ-36" source="80OV8Sp7y3rcq8Tu3NWQ-4" target="80OV8Sp7y3rcq8Tu3NWQ-13">
          <mxGeometry relative="1" as="geometry">
            <Array as="points">
              <mxPoint x="130" y="645" />
              <mxPoint x="130" y="380" />
            </Array>
          </mxGeometry>
        </mxCell>
        <mxCell id="EYcm057duq2a2HkxR-Ni-8" style="edgeStyle=orthogonalEdgeStyle;rounded=0;orthogonalLoop=1;jettySize=auto;html=1;" edge="1" parent="mvioNwK95yMqdUQ73LqQ-36" source="80OV8Sp7y3rcq8Tu3NWQ-4" target="EYcm057duq2a2HkxR-Ni-7">
          <mxGeometry relative="1" as="geometry">
            <Array as="points">
              <mxPoint x="470" y="645" />
              <mxPoint x="470" y="875" />
              <mxPoint x="327" y="875" />
            </Array>
          </mxGeometry>
        </mxCell>
        <mxCell id="80OV8Sp7y3rcq8Tu3NWQ-4" value="c != End of file" style="rhombus;whiteSpace=wrap;html=1;" parent="mvioNwK95yMqdUQ73LqQ-36" vertex="1">
          <mxGeometry x="252.5" y="580" width="135" height="130" as="geometry" />
        </mxCell>
        <mxCell id="80OV8Sp7y3rcq8Tu3NWQ-9" style="edgeStyle=orthogonalEdgeStyle;rounded=0;orthogonalLoop=1;jettySize=auto;html=1;" parent="mvioNwK95yMqdUQ73LqQ-36" source="80OV8Sp7y3rcq8Tu3NWQ-8" target="80OV8Sp7y3rcq8Tu3NWQ-4" edge="1">
          <mxGeometry relative="1" as="geometry" />
        </mxCell>
        <mxCell id="80OV8Sp7y3rcq8Tu3NWQ-8" value="read value in file a15-5.txt store in struct person&lt;div&gt;read name age salary job&lt;/div&gt;" style="rounded=0;whiteSpace=wrap;html=1;" parent="mvioNwK95yMqdUQ73LqQ-36" vertex="1">
          <mxGeometry x="240" y="420" width="160" height="60" as="geometry" />
        </mxCell>
        <mxCell id="80OV8Sp7y3rcq8Tu3NWQ-16" style="edgeStyle=orthogonalEdgeStyle;rounded=0;orthogonalLoop=1;jettySize=auto;html=1;entryX=0.5;entryY=0;entryDx=0;entryDy=0;" parent="mvioNwK95yMqdUQ73LqQ-36" source="80OV8Sp7y3rcq8Tu3NWQ-13" target="80OV8Sp7y3rcq8Tu3NWQ-8" edge="1">
          <mxGeometry relative="1" as="geometry" />
        </mxCell>
        <mxCell id="80OV8Sp7y3rcq8Tu3NWQ-13" value="" style="ellipse;whiteSpace=wrap;html=1;aspect=fixed;" parent="mvioNwK95yMqdUQ73LqQ-36" vertex="1">
          <mxGeometry x="310" y="370" width="20" height="20" as="geometry" />
        </mxCell>
        <mxCell id="80OV8Sp7y3rcq8Tu3NWQ-21" value="Yes" style="text;html=1;align=center;verticalAlign=middle;resizable=0;points=[];autosize=1;strokeColor=none;fillColor=none;" parent="mvioNwK95yMqdUQ73LqQ-36" vertex="1">
          <mxGeometry x="212.5" y="670" width="40" height="30" as="geometry" />
        </mxCell>
        <mxCell id="80OV8Sp7y3rcq8Tu3NWQ-22" value="No" style="text;html=1;align=center;verticalAlign=middle;resizable=0;points=[];autosize=1;strokeColor=none;fillColor=none;" parent="mvioNwK95yMqdUQ73LqQ-36" vertex="1">
          <mxGeometry x="380" y="610" width="40" height="30" as="geometry" />
        </mxCell>
        <mxCell id="EYcm057duq2a2HkxR-Ni-1" style="edgeStyle=orthogonalEdgeStyle;rounded=0;orthogonalLoop=1;jettySize=auto;html=1;" edge="1" parent="mvioNwK95yMqdUQ73LqQ-36" source="EYcm057duq2a2HkxR-Ni-0">
          <mxGeometry relative="1" as="geometry">
            <mxPoint x="545" y="120" as="targetPoint" />
          </mxGeometry>
        </mxCell>
        <mxCell id="EYcm057duq2a2HkxR-Ni-0" value="&lt;font data-font-src=&quot;https://fonts.googleapis.com/css?family=Sarabun&quot; face=&quot;Sarabun&quot;&gt;struct Person&lt;/font&gt;" style="ellipse;whiteSpace=wrap;html=1;" vertex="1" parent="mvioNwK95yMqdUQ73LqQ-36">
          <mxGeometry x="480" y="40" width="130" height="30" as="geometry" />
        </mxCell>
        <mxCell id="EYcm057duq2a2HkxR-Ni-2" value="name&lt;div&gt;age&lt;/div&gt;&lt;div&gt;salary&lt;/div&gt;&lt;div&gt;job&lt;/div&gt;" style="rounded=0;whiteSpace=wrap;html=1;" vertex="1" parent="mvioNwK95yMqdUQ73LqQ-36">
          <mxGeometry x="480" y="120" width="120" height="60" as="geometry" />
        </mxCell>
        <mxCell id="EYcm057duq2a2HkxR-Ni-10" style="edgeStyle=orthogonalEdgeStyle;rounded=0;orthogonalLoop=1;jettySize=auto;html=1;" edge="1" parent="mvioNwK95yMqdUQ73LqQ-36" source="EYcm057duq2a2HkxR-Ni-4">
          <mxGeometry relative="1" as="geometry">
            <mxPoint x="325" y="1290" as="targetPoint" />
          </mxGeometry>
        </mxCell>
        <mxCell id="EYcm057duq2a2HkxR-Ni-4" value="Display average age" style="shape=parallelogram;perimeter=parallelogramPerimeter;whiteSpace=wrap;html=1;fixedSize=1;" vertex="1" parent="mvioNwK95yMqdUQ73LqQ-36">
          <mxGeometry x="265" y="1170" width="120" height="60" as="geometry" />
        </mxCell>
        <mxCell id="EYcm057duq2a2HkxR-Ni-9" style="edgeStyle=orthogonalEdgeStyle;rounded=0;orthogonalLoop=1;jettySize=auto;html=1;" edge="1" parent="mvioNwK95yMqdUQ73LqQ-36" source="EYcm057duq2a2HkxR-Ni-7">
          <mxGeometry relative="1" as="geometry">
            <mxPoint x="327" y="1170" as="targetPoint" />
          </mxGeometry>
        </mxCell>
        <mxCell id="EYcm057duq2a2HkxR-Ni-7" value="calculate average of age" style="rounded=0;whiteSpace=wrap;html=1;" vertex="1" parent="mvioNwK95yMqdUQ73LqQ-36">
          <mxGeometry x="267" y="1040" width="120" height="60" as="geometry" />
        </mxCell>
        <mxCell id="EYcm057duq2a2HkxR-Ni-12" style="edgeStyle=orthogonalEdgeStyle;rounded=0;orthogonalLoop=1;jettySize=auto;html=1;" edge="1" parent="mvioNwK95yMqdUQ73LqQ-36" source="EYcm057duq2a2HkxR-Ni-11">
          <mxGeometry relative="1" as="geometry">
            <mxPoint x="327" y="1400" as="targetPoint" />
          </mxGeometry>
        </mxCell>
        <mxCell id="EYcm057duq2a2HkxR-Ni-11" value="Sort value in struct using bubble sort&lt;div&gt;&lt;br&gt;&lt;/div&gt;" style="rounded=0;whiteSpace=wrap;html=1;" vertex="1" parent="mvioNwK95yMqdUQ73LqQ-36">
          <mxGeometry x="267" y="1290" width="120" height="60" as="geometry" />
        </mxCell>
        <mxCell id="EYcm057duq2a2HkxR-Ni-14" style="edgeStyle=orthogonalEdgeStyle;rounded=0;orthogonalLoop=1;jettySize=auto;html=1;" edge="1" parent="mvioNwK95yMqdUQ73LqQ-36" source="EYcm057duq2a2HkxR-Ni-13">
          <mxGeometry relative="1" as="geometry">
            <mxPoint x="327" y="1540" as="targetPoint" />
          </mxGeometry>
        </mxCell>
        <mxCell id="EYcm057duq2a2HkxR-Ni-13" value="Display top 3 tallest people" style="shape=parallelogram;perimeter=parallelogramPerimeter;whiteSpace=wrap;html=1;fixedSize=1;" vertex="1" parent="mvioNwK95yMqdUQ73LqQ-36">
          <mxGeometry x="267" y="1400" width="120" height="60" as="geometry" />
        </mxCell>
        <mxCell id="80OV8Sp7y3rcq8Tu3NWQ-19" style="edgeStyle=orthogonalEdgeStyle;rounded=0;orthogonalLoop=1;jettySize=auto;html=1;" parent="mvioNwK95yMqdUQ73LqQ-36" source="80OV8Sp7y3rcq8Tu3NWQ-17" edge="1">
          <mxGeometry relative="1" as="geometry">
            <mxPoint x="330" y="1690" as="targetPoint" />
          </mxGeometry>
        </mxCell>
        <mxCell id="80OV8Sp7y3rcq8Tu3NWQ-17" value="close file" style="rounded=0;whiteSpace=wrap;html=1;" parent="mvioNwK95yMqdUQ73LqQ-36" vertex="1">
          <mxGeometry x="270" y="1540" width="120" height="60" as="geometry" />
        </mxCell>
        <mxCell id="80OV8Sp7y3rcq8Tu3NWQ-20" value="&lt;font data-font-src=&quot;https://fonts.googleapis.com/css?family=Sarabun&quot; face=&quot;Sarabun&quot;&gt;End&lt;/font&gt;" style="ellipse;whiteSpace=wrap;html=1;" parent="mvioNwK95yMqdUQ73LqQ-36" vertex="1">
          <mxGeometry x="265" y="1690" width="130" height="30" as="geometry" />
        </mxCell>
      </root>
    </mxGraphModel>
  </diagram>
</mxfile>
